<svg width="321" height="449" viewBox="0 0 321 449" fill="none" xmlns="http://www.w3.org/2000/svg">
<path d="M299.077 165.583C286.681 132.694 268.614 102.233 245.697 75.5833C206.037 29.6733 144.837 0.0232563 96.8372 0.0232563C115.837 70.0233 82.4772 117.143 52.0472 163.793C26.8372 202.383 0.837189 242.293 0.837189 288.023C0.837189 376.243 72.6172 448.023 160.837 448.023C249.057 448.023 320.837 376.243 320.837 288.023C320.837 244.723 313.517 203.533 299.077 165.583ZM193.167 386.713C182.837 397.713 169.887 400.023 160.837 400.023C151.787 400.023 138.837 397.713 128.507 386.713C118.177 375.713 112.837 358.263 112.837 336.023C112.837 310.883 121.657 291.743 130.177 273.243C136.657 259.173 144.837 246.023 145.287 228.753C156.587 234.633 168.957 245.663 179.827 260.033C197.997 284.033 208.827 312.453 208.827 336.033C208.837 358.263 203.417 375.793 193.167 386.713Z" fill="#EDFBFD"/>
</svg>
