<svg width="513" height="513" viewBox="0 0 513 513" fill="none" xmlns="http://www.w3.org/2000/svg">
<path d="M445.007 32.0233H71.1172C50.6872 32.0233 32.8372 46.7233 32.8372 66.9133V441.633C32.8372 461.933 50.6872 480.023 71.1172 480.023H444.897C465.437 480.023 480.837 461.813 480.837 441.633V66.9133C480.957 46.7233 465.437 32.0233 445.007 32.0233ZM171.707 405.453H107.527V205.903H171.707V405.453ZM141.837 175.563H141.377C120.837 175.563 107.537 160.273 107.537 141.133C107.537 121.643 121.187 106.713 142.187 106.713C163.187 106.713 176.037 121.533 176.497 141.133C176.487 160.273 163.187 175.563 141.837 175.563ZM406.267 405.453H342.087V296.343C342.087 270.203 332.747 252.343 309.527 252.343C291.787 252.343 281.287 264.343 276.617 276.033C274.867 280.233 274.397 285.953 274.397 291.793V405.453H210.217V205.903H274.397V233.673C283.737 220.373 298.327 201.233 332.277 201.233C374.407 201.233 406.277 229.003 406.277 288.873L406.267 405.453Z" fill="#EAEFE1"/>
</svg>
