<svg width="512" height="512" viewBox="0 0 512 512" fill="none" xmlns="http://www.w3.org/2000/svg">
<path d="M464 66.52C463.874 53.3633 458.567 40.7866 449.229 31.5167C439.892 22.2468 427.277 17.031 414.12 17L97.64 16C84.4962 16.0026 71.8898 21.2169 62.5845 30.4997C53.2792 39.7825 48.0344 52.3763 48 65.52V392C48 419.3 70.28 440 97.64 440H368L355 396L464 496V66.52ZM324.65 329.81C324.65 329.81 315.93 319.42 308.65 310.49C340.39 301.55 352.5 282 352.5 282C343.782 287.783 334.44 292.563 324.65 296.25C313.346 300.943 301.577 304.426 289.54 306.64C268.799 310.45 247.531 310.368 226.82 306.4C214.637 304.138 202.714 300.653 191.23 296C185.155 293.673 179.248 290.93 173.55 287.79C172.82 287.31 172.1 287.07 171.37 286.58C170.88 286.34 170.64 286.1 170.37 286.1C166.01 283.68 163.59 281.99 163.59 281.99C163.59 281.99 175.21 301.08 205.97 310.25C198.7 319.43 189.74 330.06 189.74 330.06C136.23 328.37 115.89 293.59 115.89 293.59C115.89 216.53 150.76 153.97 150.76 153.97C185.63 128.12 218.56 128.85 218.56 128.85L220.98 131.75C177.39 144.07 157.54 163.15 157.54 163.15C157.54 163.15 162.86 160.25 171.82 156.38C197.73 145.03 218.32 142.13 226.82 141.17C228.177 140.888 229.555 140.724 230.94 140.68C247.166 138.575 263.586 138.413 279.85 140.2C305.388 143.134 330.128 150.923 352.74 163.15C352.74 163.15 333.61 145 292.44 132.7L295.83 128.84C295.83 128.84 329 128.11 363.64 154C363.64 154 398.51 216.56 398.51 293.62C398.51 293.34 378.16 328.12 324.65 329.81Z" fill="#EAEFE1"/>
<path d="M212.05 218C198.25 218 187.35 229.84 187.35 244.57C187.35 259.3 198.49 271.14 212.05 271.14C225.85 271.14 236.75 259.31 236.75 244.57C237 229.81 225.85 218 212.05 218ZM300.43 218C286.63 218 275.73 229.84 275.73 244.57C275.73 259.3 286.87 271.14 300.43 271.14C314.24 271.14 325.13 259.31 325.13 244.57C325.13 229.83 314 218 300.43 218Z" fill="#EAEFE1"/>
</svg>
