<svg width="513" height="513" viewBox="0 0 513 513" fill="none" xmlns="http://www.w3.org/2000/svg">
<path d="M256.837 32.0233C133.137 32.0233 32.8372 134.923 32.8372 261.723C32.8372 363.223 97.0372 449.223 186.037 479.623C187.286 479.894 188.56 480.029 189.837 480.023C198.137 480.023 201.337 473.923 201.337 468.623C201.337 463.123 201.137 448.723 201.037 429.523C193.628 431.26 186.047 432.166 178.437 432.223C135.337 432.223 125.537 398.723 125.537 398.723C115.337 372.223 100.637 365.123 100.637 365.123C81.1372 351.423 100.537 351.023 102.037 351.023H102.137C124.637 353.023 136.437 374.823 136.437 374.823C147.637 394.423 162.637 399.923 176.037 399.923C184.898 399.746 193.621 397.702 201.637 393.923C203.637 379.123 209.437 369.023 215.837 363.223C166.137 357.423 113.837 337.723 113.837 249.723C113.837 224.623 122.537 204.123 136.837 188.123C134.537 182.323 126.837 158.923 139.037 127.323C140.674 126.932 142.356 126.763 144.037 126.823C152.137 126.823 170.437 129.923 200.637 150.923C237.333 140.656 276.142 140.656 312.837 150.923C343.037 129.923 361.337 126.823 369.437 126.823C371.119 126.763 372.801 126.932 374.437 127.323C386.637 158.923 378.937 182.323 376.637 188.123C390.937 204.223 399.637 224.723 399.637 249.723C399.637 337.923 347.237 357.323 297.337 363.023C305.337 370.123 312.537 384.123 312.537 405.523C312.537 436.223 312.237 461.023 312.237 468.523C312.237 473.923 315.337 480.023 323.637 480.023C324.981 480.029 326.321 479.895 327.637 479.623C416.737 449.223 480.837 363.123 480.837 261.723C480.837 134.923 380.537 32.0233 256.837 32.0233Z" fill="#EAEFE1"/>
</svg>
